<?xml version="1.0" encoding="UTF-8" standalone="no"?>
<!-- Created with Inkscape (http://www.inkscape.org/) -->

<svg
   xmlns:dc="http://purl.org/dc/elements/1.1/"
   xmlns:cc="http://creativecommons.org/ns#"
   xmlns:rdf="http://www.w3.org/1999/02/22-rdf-syntax-ns#"
   xmlns:svg="http://www.w3.org/2000/svg"
   xmlns="http://www.w3.org/2000/svg"
   xmlns:sodipodi="http://sodipodi.sourceforge.net/DTD/sodipodi-0.dtd"
   xmlns:inkscape="http://www.inkscape.org/namespaces/inkscape"
   width="744.09448819"
   height="1052.3622047"
   id="svg2"
   inkscape:label="Pozadí"
   version="1.1"
   inkscape:version="0.48.4 r9939"
   sodipodi:docname="grafika.svg">
  <defs
     id="defs3" />
  <sodipodi:namedview
     id="base"
     pagecolor="#ffffff"
     bordercolor="#666666"
     borderopacity="1.0"
     inkscape:pageopacity="0.0"
     inkscape:pageshadow="2"
     inkscape:zoom="4"
     inkscape:cx="120.16"
     inkscape:cy="635.31859"
     inkscape:document-units="px"
     inkscape:current-layer="g4033"
     showgrid="false"
     showguides="true"
     inkscape:guide-bbox="true"
     inkscape:window-width="1538"
     inkscape:window-height="877"
     inkscape:window-x="-8"
     inkscape:window-y="172"
     inkscape:window-maximized="1" />
  <metadata
     id="metadata6">
    <rdf:RDF>
      <cc:Work
         rdf:about="">
        <dc:format>image/svg+xml</dc:format>
        <dc:type
           rdf:resource="http://purl.org/dc/dcmitype/StillImage" />
        <dc:title></dc:title>
      </cc:Work>
    </rdf:RDF>
  </metadata>
  <g
     inkscape:label="Vrstva 1"
     inkscape:groupmode="layer"
     id="layer1">
    <g
       id="g4033">
      <path
         style="fill:#4cb1ff;fill-opacity:1;fill-rule:evenodd;stroke:none"
         d="m 316.87813,457.82302 c 0.13103,9.43608 -5.93397,18.53637 -14.65599,22.11075 -8.56841,3.73182 -19.21233,1.80089 -25.89669,-4.74043 -6.77349,-6.29371 -9.24492,-16.66259 -6.08353,-25.34469 3.05708,-8.99922 11.89739,-15.63438 21.40484,-15.99092 9.24235,-0.59738 18.48047,4.75973 22.60616,13.04084 1.72884,3.36422 2.63096,7.14285 2.62521,10.92445 z"
         id="path2986"
         inkscape:connector-curvature="0"
         inkscape:export-filename="C:\Users\jd39426\git\jidelak\jidelak\res\drawable-xxxhdpi\ic_launcher.png"
         inkscape:export-xdpi="639.30347"
         inkscape:export-ydpi="639.30347" />
      <path
         style="fill:#ffda7c;stroke:#ffffff;stroke-width:1.90100000000000000;stroke-miterlimit:73.19999694999999900;stroke-opacity:1;stroke-dasharray:none;fill-opacity:1"
         d="m 309.76908,457.82302 c 0.15248,7.79537 -5.82564,15.11207 -13.48405,16.54438 -7.36618,1.64618 -15.4648,-2.37408 -18.6256,-9.22297 -3.46327,-6.88937 -1.35776,-15.95698 4.79608,-20.60702 6.08699,-4.97036 15.63666,-4.74174 21.4777,0.51619 3.6753,3.15016 5.86791,7.92605 5.83587,12.76942 z"
         id="path2986-5"
         inkscape:connector-curvature="0"
         inkscape:export-filename="C:\Users\jd39426\git\jidelak\jidelak\res\drawable-xxxhdpi\ic_launcher.png"
         inkscape:export-xdpi="639.30347"
         inkscape:export-ydpi="639.30347" />
      <g
         id="g3846"
         style="fill:#ffffff;fill-opacity:1"
         transform="translate(0.26785714,-0.08928571)">
        <path
           inkscape:connector-curvature="0"
           id="rect2988"
           d="m 312.96836,452.29624 -1.31069,-2.23718 -8.29761,4.80703 -0.0259,-0.0136 c -0.1915,-0.36809 -0.38784,-0.71216 -0.59879,-1.07173 l 8.28131,-4.78115 -1.28483,-2.22359 -8.28131,4.78115 c -0.11403,-0.20151 -0.24017,-0.39139 -0.34748,-0.59585 -0.0706,-0.15369 -0.16225,-0.31604 -0.25103,-0.47601 l 8.29761,-4.80703 -1.31068,-2.23717 -9.84757,5.68088 c -0.0358,0.0184 -0.0641,0.0301 -0.10037,0.051 -0.78251,0.4355 -1.18098,1.40122 -0.91926,2.1693 0.3743,0.71392 0.78567,1.40462 1.18804,2.10395 l -22.20594,12.83469 1.28483,2.22359 22.20594,-12.83469 c 0.2424,0.41785 0.47798,0.84948 0.71478,1.27023 0.29236,1.34247 1.90029,1.6068 2.93619,1.02374 l 0.01,0.0395 9.86356,-5.70732 z"
           style="fill:#ffffff;fill-opacity:1;fill-rule:evenodd;stroke:none" />
        <path
           inkscape:connector-curvature="0"
           id="path3828"
           d="m 275.49078,453.44882 c 0.22753,0.30717 0.50258,0.60151 0.78624,0.85964 2.34984,2.50316 6.87551,3.55885 9.36035,1.41132 l 22.40724,12.93579 1.24695,-2.18919 -22.42368,-12.96145 c 0.44189,-2.41911 -1.34004,-5.24679 -3.71914,-6.4984 -2.18477,-1.28055 -5.11964,-1.61102 -7.12958,-0.27362 -2.2703,1.43339 -2.12113,4.5658 -0.52842,6.71602 z"
           style="fill:#ffffff;fill-opacity:1;fill-rule:evenodd;stroke:none" />
        <path
           inkscape:connector-curvature="0"
           id="rect2988-4"
           d="m 292.78115,439.29468 c -0.72525,-0.0455 -1.48695,0.28942 -1.53125,0.96875 l 0,19.40625 c -0.0312,0.0173 -0.0618,0.0113 -0.0937,0.0312 -1.46637,2.67272 -1.49665,6.0306 -1.59375,9.09375 0.002,1.64866 0.11292,3.30929 0.34375,4.9375 0.0305,1.34126 0.86254,4.5374 1.96875,4.4375 0.38109,0.19409 0.87431,0.23822 1.375,0.125 0.46593,0.006 0.79495,-0.46832 0.78125,-0.90625 l 0,-7.1875 c 0.0218,-0.79324 0.0267,-1.58188 0,-2.375 l 0,-27.3125 c 0.14518,-0.76807 -0.52475,-1.17321 -1.25,-1.21875 z"
           style="fill:#ffffff;fill-opacity:1;fill-rule:evenodd;stroke:none" />
      </g>
      <g
         id="g3099"
         inkscape:export-filename="C:\Users\Petr\git\jidelak\jidelak\src\main\graphics\ic_launcher.png"
         inkscape:export-xdpi="940.22998"
         inkscape:export-ydpi="940.22998">
        <path
           inkscape:export-ydpi="160"
           inkscape:export-xdpi="160"
           inkscape:export-filename="C:\Users\Petr\git\jidelak\jidelak\res\drawable-mdpi\ic_launcher.png"
           inkscape:connector-curvature="0"
           id="path2986-4"
           d="m 238.59017,482.68658 c 0.13103,9.43608 -5.93397,18.53637 -14.65599,22.11075 -8.56841,3.73182 -19.21233,1.80089 -25.89669,-4.74043 -6.77349,-6.29371 -9.24492,-16.66259 -6.08353,-25.34469 3.05708,-8.99922 11.89739,-15.63438 21.40484,-15.99092 9.24235,-0.59738 18.48047,4.75973 22.60616,13.04084 1.72884,3.36422 2.63096,7.14285 2.62521,10.92445 z"
           style="fill:none;fill-opacity:1;fill-rule:evenodd;stroke:#ff9741;stroke-opacity:1" />
        <path
           inkscape:export-ydpi="160"
           inkscape:export-xdpi="160"
           inkscape:export-filename="C:\Users\Petr\git\jidelak\jidelak\res\drawable-mdpi\ic_launcher.png"
           id="path3815"
           d="M 231.158 479.36835 C 231.37777 480.45813 231.4885 481.57057 231.48112 482.68658 L 231.48112 482.68658 L 231.48112 482.68658 C 231.53491 485.43651 230.82579 488.12687 229.54913 490.52035 "
           style="fill:none;fill-opacity:1;stroke:#ff9741;stroke-width:1;stroke-miterlimit:73.19999694999999900;stroke-opacity:1;stroke-dasharray:none" />
        <path
           inkscape:export-ydpi="160"
           inkscape:export-xdpi="160"
           inkscape:export-filename="C:\Users\Petr\git\jidelak\jidelak\res\drawable-mdpi\ic_launcher.png"
           id="path3811"
           d="M 229.92418 475.60332 C 230.10411 475.99234 230.26944 476.3881 230.41964 476.78951 "
           style="fill:none;fill-opacity:1;stroke:#ff9741;stroke-width:1;stroke-miterlimit:73.19999694999999900;stroke-opacity:1;stroke-dasharray:none" />
        <path
           inkscape:export-ydpi="160"
           inkscape:export-xdpi="160"
           inkscape:export-filename="C:\Users\Petr\git\jidelak\jidelak\res\drawable-mdpi\ic_launcher.png"
           id="path3807"
           d="M 227.95221 472.34965 C 228.20679 472.6795 228.44904 473.01878 228.67846 473.36648 "
           style="fill:none;fill-opacity:1;stroke:#ff9741;stroke-width:1;stroke-miterlimit:73.19999694999999900;stroke-opacity:1;stroke-dasharray:none" />
        <path
           inkscape:export-ydpi="160"
           inkscape:export-xdpi="160"
           inkscape:export-filename="C:\Users\Petr\git\jidelak\jidelak\res\drawable-mdpi\ic_launcher.png"
           id="path3800"
           d="M 215.85968 465.86519 C 219.44202 466.12667 222.94108 467.48294 225.64525 469.91716 C 225.8189 470.066 225.98925 470.21847 226.1562 470.37441 "
           style="fill:none;fill-opacity:1;stroke:#ff9741;stroke-width:1;stroke-miterlimit:73.19999694999999900;stroke-opacity:1;stroke-dasharray:none" />
        <path
           inkscape:export-ydpi="160"
           inkscape:export-xdpi="160"
           inkscape:export-filename="C:\Users\Petr\git\jidelak\jidelak\res\drawable-mdpi\ic_launcher.png"
           id="path3788"
           d="M 202.24831 471.12677 C 202.83549 470.50195 203.47595 469.92356 204.16755 469.40097 C 206.69566 467.33663 209.82107 466.16911 213.03002 465.88625 "
           style="fill:none;fill-opacity:1;stroke:#ff9741;stroke-width:1;stroke-miterlimit:73.19999694999999900;stroke-opacity:1;stroke-dasharray:none" />
        <path
           inkscape:export-ydpi="160"
           inkscape:export-xdpi="160"
           inkscape:export-filename="C:\Users\Petr\git\jidelak\jidelak\res\drawable-mdpi\ic_launcher.png"
           id="path3829"
           d="M 199.47952 490.23704 C 199.44289 490.16105 199.40687 490.0847 199.37147 490.00799 C 197.70206 486.6871 197.32659 482.86008 198.07475 479.26568 "
           style="fill:none;fill-opacity:1;stroke:#ff9741;stroke-width:1;stroke-miterlimit:73.19999694999999900;stroke-opacity:1;stroke-dasharray:none" />
        <path
           inkscape:export-ydpi="160"
           inkscape:export-xdpi="160"
           inkscape:export-filename="C:\Users\Petr\git\jidelak\jidelak\res\drawable-mdpi\ic_launcher.png"
           id="path3822"
           d="M 211.80858 499.35158 C 207.43681 498.58648 203.36453 496.08879 200.79205 492.45924 "
           style="fill:none;fill-opacity:1;stroke:#ff9741;stroke-width:1;stroke-miterlimit:73.19999694999999900;stroke-opacity:1;stroke-dasharray:none" />
        <path
           inkscape:export-ydpi="160"
           inkscape:export-xdpi="160"
           inkscape:export-filename="C:\Users\Petr\git\jidelak\jidelak\res\drawable-mdpi\ic_launcher.png"
           id="path3784"
           d="M 228.20206 492.65632 C 225.74759 495.98903 222.11527 498.46076 217.99707 499.23096 C 217.28363 499.3904 216.56332 499.49668 215.84128 499.55239 "
           style="fill:none;fill-opacity:1;stroke:#ff9741;stroke-width:1;stroke-miterlimit:73.19999694999999900;stroke-opacity:1;stroke-dasharray:none" />
        <path
           inkscape:export-ydpi="160"
           inkscape:export-xdpi="160"
           inkscape:export-filename="C:\Users\Petr\git\jidelak\jidelak\res\drawable-mdpi\ic_launcher.png"
           id="path3852"
           d="M 216.81216 483.18533 L 221.24596 480.62267 C 221.48836 481.04052 221.72394 481.47215 221.96074 481.8929 C 222.2531 483.23537 223.86103 483.4997 224.89693 482.91664 L 224.90693 482.95614 L 234.77049 477.24882 L 234.76969 477.24908 L 234.76969 477.24908 L 233.459 475.0119 L 225.16139 479.81893 L 225.13549 479.80533 C 224.94399 479.43724 224.74765 479.09317 224.5367 478.7336 L 232.81801 473.95245 L 231.53318 471.72886 L 223.25187 476.51001 C 223.13784 476.3085 223.0117 476.11862 222.90439 475.91416 C 222.83379 475.76047 222.74214 475.59812 222.65336 475.43815 L 230.95097 470.63112 L 229.64029 468.39395 L 219.79272 474.07483 C 219.75692 474.09323 219.72862 474.10493 219.69235 474.12583 C 218.90984 474.56133 218.51137 475.52705 218.77309 476.29513 C 219.14739 477.00905 219.55876 477.69975 219.96113 478.39908 L 215.8401 480.78097 "
           style="fill:none;stroke:#ff9741;stroke-opacity:1" />
        <path
           inkscape:export-ydpi="160"
           inkscape:export-xdpi="160"
           inkscape:export-filename="C:\Users\Petr\git\jidelak\jidelak\res\drawable-mdpi\ic_launcher.png"
           id="path3857"
           d="M 211.71908 483.16286 L 197.75519 491.23377 L 199.04002 493.45736 L 212.69365 485.56577 "
           style="fill:none;stroke:#ff9741;stroke-opacity:1" />
        <path
           inkscape:export-ydpi="160"
           inkscape:export-xdpi="160"
           inkscape:export-filename="C:\Users\Petr\git\jidelak\jidelak\res\drawable-mdpi\ic_launcher.png"
           id="path3838"
           d="M 213.06868 481.00077 L 208.66921 478.45777 C 209.1111 476.03866 207.32917 473.21098 204.95007 471.95937 C 202.7653 470.67882 199.83043 470.34835 197.82049 471.68575 C 195.55019 473.11914 195.69936 476.25155 197.29207 478.40177 L 197.29211 478.40166 L 197.29211 478.40166 C 197.51964 478.70883 197.79469 479.00317 198.07835 479.2613 C 200.42819 481.76446 204.95386 482.82015 207.4387 480.67262 L 213.06825 483.92258 "
           style="fill:none;stroke:#ff9741;stroke-opacity:1" />
        <path
           inkscape:export-ydpi="160"
           inkscape:export-xdpi="160"
           inkscape:export-filename="C:\Users\Petr\git\jidelak\jidelak\res\drawable-mdpi\ic_launcher.png"
           id="path3834"
           d="M 215.84604 485.52621 L 229.84594 493.60841 L 231.09289 491.41922 L 215.85744 482.61275 "
           style="fill:none;stroke:#ff9741;stroke-opacity:1" />
        <path
           inkscape:export-ydpi="160"
           inkscape:export-xdpi="160"
           inkscape:export-filename="C:\Users\Petr\git\jidelak\jidelak\res\drawable-mdpi\ic_launcher.png"
           inkscape:connector-curvature="0"
           id="rect2988-4-5"
           d="m 214.58248,464.24752 c -0.72525,-0.0455 -1.48695,0.28942 -1.53125,0.96875 l 0,19.40625 c -0.0312,0.0173 -0.0618,0.0113 -0.0937,0.0312 -1.46637,2.67272 -1.49665,6.0306 -1.59375,9.09375 0.002,1.64866 0.11292,3.30929 0.34375,4.9375 0.0305,1.34126 0.86254,4.5374 1.96875,4.4375 0.38109,0.19409 0.87431,0.23822 1.375,0.125 0.46593,0.006 0.79495,-0.46832 0.78125,-0.90625 l 0,-7.1875 c 0.0218,-0.79324 0.0267,-1.58188 0,-2.375 l 0,-27.3125 c 0.14518,-0.76807 -0.52475,-1.17321 -1.25,-1.21875 z"
           style="fill:none;stroke:#ff9741;stroke-opacity:1" />
      </g>
      <path
         sodipodi:type="arc"
         style="fill:none;stroke:#ff9741;stroke-width:1;stroke-miterlimit:73.19999695;stroke-opacity:1;stroke-dasharray:none"
         id="path3055-0"
         sodipodi:cx="94.954338"
         sodipodi:cy="452.07904"
         sodipodi:rx="24.117392"
         sodipodi:ry="24.117392"
         d="m 119.07173,452.07904 a 24.117392,24.117392 0 1 1 -48.234784,0 24.117392,24.117392 0 1 1 48.234784,0 z"
         transform="translate(64.857341,-184.13821)" />
      <path
         d="m 119.07173,452.07904 a 24.117392,24.117392 0 1 1 -48.234784,0 24.117392,24.117392 0 1 1 48.234784,0 z"
         sodipodi:ry="24.117392"
         sodipodi:rx="24.117392"
         sodipodi:cy="452.07904"
         sodipodi:cx="94.954338"
         id="path3057-9"
         style="fill:none;stroke:#ff9741;stroke-width:1.43395185;stroke-miterlimit:73.19999695;stroke-opacity:1;stroke-dasharray:none"
         sodipodi:type="arc"
         transform="matrix(0.6973735,0,0,0.6973735,93.59304,-47.327112)" />
      <path
         style="fill:none;stroke:#ff9741;stroke-width:1;stroke-miterlimit:73.19999695;stroke-opacity:1"
         d="m 181.0432,248.18483 c 0.76948,0 1.60992,0.84045 1.60992,1.60993 l 0,37.74183 c 0,0.76949 -0.61947,1.38896 -1.38895,1.38896 -0.76949,0 -1.38896,-0.61947 -1.38896,-1.38896 l 0,-16.35185 c 0,0 -1.30736,-3.67446 -2.2539,-5.65685 -0.94655,-1.98238 2.65241,-17.34306 3.42189,-17.34306 z"
         id="rect3831-4"
         inkscape:connector-curvature="0"
         sodipodi:nodetypes="sssssczs" />
      <path
         style="fill:none;stroke:#ff9741;stroke-width:1;stroke-miterlimit:73.19999695;stroke-opacity:1;stroke-dasharray:none"
         d="m 186.47722,251.0193 c -2.76627,0 -5.03125,3.03866 -5.03125,6.78125 0,3.08763 1.53749,5.68269 3.625,6.5 l 0,23.25 c 0,0.76948 0.63677,1.375 1.40625,1.375 0.76949,0 1.375,-0.60552 1.375,-1.375 l 0,-23.25 c 2.08752,-0.81731 3.625,-3.41237 3.625,-6.5 0,-3.74259 -2.23372,-6.78125 -5,-6.78125 z"
         id="rect3829-1-8"
         inkscape:connector-curvature="0" />
      <path
         style="fill:none;stroke:#ff9741;stroke-width:0.90095639;stroke-miterlimit:73.19999695;stroke-opacity:1"
         d="m 133.23407,258.79748 0,-7.82226 -3.02191,-0.0314 c -0.17364,0 -0.3125,1.39644 -0.3125,3.125 l 0,2.15625 c 0,1.19335 0.0891,2.19363 0.1875,2.71875 0.0263,0.14044 0.0323,0.28256 0.0625,0.34375 0.39737,2.42962 1.74588,4.38736 3.5,5.0625 l 0,23.21875 c 0,0.76949 0.60551,1.40625 1.375,1.40625 0.76948,0 1.375,-0.63676 1.375,-1.40625 l 0,-23.21875 c 1.75412,-0.67514 3.10263,-2.63288 3.5,-5.0625 0.14308,-0.28999 0.25,-1.55001 0.25,-3.0625 l 0,-2.15625 c 0,-1.72856 -0.13886,-3.125 -0.3125,-3.125 l -3.02191,0.0314 0,7.82226 0.004,-7.82474 -3.58498,0.003 z"
         id="rect3866-8"
         inkscape:connector-curvature="0"
         sodipodi:nodetypes="cccsscccsssccsscccccc" />
      <g
         id="g4063">
        <path
           transform="translate(-1.158614,-64.848987)"
           d="m 119.07173,452.07904 a 24.117392,24.117392 0 1 1 -48.234784,0 24.117392,24.117392 0 1 1 48.234784,0 z"
           sodipodi:ry="24.117392"
           sodipodi:rx="24.117392"
           sodipodi:cy="452.07904"
           sodipodi:cx="94.954338"
           id="path3055"
           style="fill:none;stroke:#ff9741;stroke-width:1;stroke-miterlimit:73.19999694999999900;stroke-opacity:1;stroke-dasharray:none"
           sodipodi:type="arc" />
        <path
           transform="matrix(0.6973735,0,0,0.6973735,27.577085,71.96211)"
           sodipodi:type="arc"
           style="fill:none;stroke:#ff9741;stroke-width:1.43395184999999990;stroke-miterlimit:73.19999694999999900;stroke-opacity:1;stroke-dasharray:none"
           id="path3057"
           sodipodi:cx="94.954338"
           sodipodi:cy="452.07904"
           sodipodi:rx="24.117392"
           sodipodi:ry="24.117392"
           d="m 119.07173,452.07904 a 24.117392,24.117392 0 1 1 -48.234784,0 24.117392,24.117392 0 1 1 48.234784,0 z" />
        <path
           id="path3970"
           d="M 113.24601 372.89082 C 113.97822 369.86965 114.72337 367.47406 115.02725 367.47406 L 115.02725 367.47406 L 115.02725 367.47406 C 115.79673 367.47406 116.63717 368.31451 116.63717 369.08399 L 116.63717 372.83628 "
           style="fill:none;stroke:#ff9741;stroke-width:1;stroke-miterlimit:73.19999694999999900;stroke-opacity:1" />
        <path
           id="path3966"
           d="M 116.63717 394.72467 L 116.63717 406.82582 C 116.63717 407.59531 116.0177 408.21478 115.24822 408.21478 C 114.47873 408.21478 113.85926 407.59531 113.85926 406.82582 L 113.85926 400.60399 "
           style="fill:none;stroke:#ff9741;stroke-width:1;stroke-miterlimit:73.19999694999999900;stroke-opacity:1" />
        <path
           id="path3975"
           d="M 117.4375 382.49812 C 117.91772 382.98493 118.46435 383.35852 119.05502 383.58978 L 119.05502 406.83978 C 119.05502 407.60926 119.69179 408.21478 120.46127 408.21478 C 121.23076 408.21478 121.83627 407.60926 121.83627 406.83978 L 121.83627 383.58978 C 123.92379 382.77247 125.46127 380.17741 125.46127 377.08978 C 125.46127 373.34719 123.22755 370.30853 120.46127 370.30853 L 120.46127 370.30853 C 117.75994 370.30853 115.53664 373.20619 115.43374 376.82738 "
           style="fill:none;stroke:#ff9741;stroke-width:1;stroke-miterlimit:73.19999694999999900;stroke-opacity:1;stroke-dasharray:none" />
        <path
           sodipodi:nodetypes="ccccccccccsscccsssc"
           inkscape:connector-curvature="0"
           id="path3956"
           d="m 75.508703,371.81125 c 0,-1.72856 -0.13886,-1.5782 -0.3125,-1.5782 l -3.02191,0.0314 0,6.05449 0.004,-6.05697 -3.58498,0.003 -2e-4,7.82174 0,0 0,-7.82226 -3.02191,-0.0314 c -0.17364,0 -0.3125,1.39644 -0.3125,3.125 l 0,2.15625 c 0,1.19335 0.0891,2.19363 0.1875,2.71875 0.0263,0.14044 0.0323,0.28256 0.0625,0.34375 0.39737,2.42962 1.74588,4.38736 3.5,5.0625 l 0,23.21875 c 0,0.76949 0.60551,1.40625 1.375,1.40625 0.76948,0 1.375,-0.63676 1.375,-1.40625 l 0,-9.74442"
           style="fill:none;stroke:#ff9741;stroke-width:0.90095639000000005;stroke-miterlimit:73.19999694999999900;stroke-opacity:1" />
        <path
           id="path3954"
           d="M 74.133703 373.3893 L 74.133703 373.35805 C 74.133703 373.35805 74.133703 373.35805 74.133703 373.35805 "
           style="fill:none;stroke:#ff9741;stroke-width:0.90095639000000005;stroke-miterlimit:73.19999694999999900;stroke-opacity:1" />
        <g
           style="fill:none"
           id="g4030">
          <rect
             style="fill:none;stroke:#ff9741;stroke-width:1.00510203999999990;stroke-miterlimit:73.19999694999999900;stroke-opacity:1;stroke-dasharray:none"
             id="rect3977"
             width="16.994898"
             height="23.494898"
             x="85.377556"
             y="375.36475"
             rx="1.3885429"
             ry="1.4035901" />
          <path
             style="fill:none;stroke:#ff9741;stroke-width:1;stroke-miterlimit:73.19999694999999900;stroke-opacity:1"
             d="m 88.500005,378.48719 c 3.583333,0 7.166667,0 10.75,0"
             id="rect3979"
             inkscape:connector-curvature="0"
             sodipodi:nodetypes="cc" />
          <path
             sodipodi:nodetypes="cc"
             inkscape:connector-curvature="0"
             id="path3982"
             d="m 88.500005,380.64344 c 3.583333,0 7.166667,0 10.75,0"
             style="fill:none;stroke:#ff9741;stroke-width:1;stroke-miterlimit:73.19999694999999900;stroke-opacity:1" />
          <path
             sodipodi:nodetypes="cc"
             inkscape:connector-curvature="0"
             id="path3986"
             d="m 88.500005,382.79969 c 3.583333,0 7.166667,0 10.75,0"
             style="fill:none;stroke:#ff9741;stroke-width:1;stroke-miterlimit:73.19999694999999900;stroke-opacity:1" />
          <path
             style="fill:none;stroke:#ff9741;stroke-width:1;stroke-miterlimit:73.19999694999999900;stroke-opacity:1"
             d="m 88.500005,384.95594 c 3.583333,0 7.166667,0 10.75,0"
             id="path3988"
             inkscape:connector-curvature="0"
             sodipodi:nodetypes="cc" />
          <path
             sodipodi:nodetypes="cc"
             inkscape:connector-curvature="0"
             id="path3998"
             d="m 88.500005,387.11219 c 3.583333,0 7.166667,0 10.75,0"
             style="fill:none;stroke:#ff9741;stroke-width:1;stroke-miterlimit:73.19999694999999900;stroke-opacity:1" />
          <path
             sodipodi:nodetypes="cc"
             inkscape:connector-curvature="0"
             id="path4002"
             d="m 88.500005,389.26844 c 3.583333,0 7.166667,0 10.75,0"
             style="fill:none;stroke:#ff9741;stroke-width:1;stroke-miterlimit:73.19999694999999900;stroke-opacity:1" />
          <path
             style="fill:none;stroke:#ff9741;stroke-width:1;stroke-miterlimit:73.19999694999999900;stroke-opacity:1"
             d="m 88.500005,391.42469 c 3.583333,0 7.166667,0 10.75,0"
             id="path4004"
             inkscape:connector-curvature="0"
             sodipodi:nodetypes="cc" />
          <path
             sodipodi:nodetypes="cc"
             inkscape:connector-curvature="0"
             id="path4006"
             d="m 88.500005,393.58094 c 3.583333,0 7.166667,0 10.75,0"
             style="fill:none;stroke:#ff9741;stroke-width:1;stroke-miterlimit:73.19999694999999900;stroke-opacity:1" />
          <path
             style="fill:none;stroke:#ff9741;stroke-width:1;stroke-miterlimit:73.19999694999999900;stroke-opacity:1"
             d="m 88.500005,395.73721 c 3.583333,0 7.166667,0 10.75,0"
             id="path4008"
             inkscape:connector-curvature="0"
             sodipodi:nodetypes="cc" />
        </g>
      </g>
    </g>
  </g>
</svg>
